<svg width="55" height="54" viewBox="0 0 55 54" fill="none" xmlns="http://www.w3.org/2000/svg">
<path d="M42.6875 5.0625H12.3125C11.4174 5.0625 10.5589 5.41808 9.92601 6.05101C9.29308 6.68395 8.9375 7.54239 8.9375 8.4375V45.5625C8.9375 46.4576 9.29308 47.316 9.92601 47.949C10.5589 48.5819 11.4174 48.9375 12.3125 48.9375H42.6875C43.5826 48.9375 44.441 48.5819 45.074 47.949C45.7069 47.316 46.0625 46.4576 46.0625 45.5625V8.4375C46.0625 7.54239 45.7069 6.68395 45.074 6.05101C44.441 5.41808 43.5826 5.0625 42.6875 5.0625ZM19.0625 42.1875C18.5619 42.1875 18.0725 42.039 17.6562 41.7609C17.24 41.4828 16.9155 41.0874 16.7239 40.6249C16.5323 40.1624 16.4822 39.6534 16.5799 39.1624C16.6776 38.6714 16.9186 38.2204 17.2726 37.8664C17.6266 37.5124 18.0777 37.2713 18.5687 37.1736C19.0597 37.076 19.5686 37.1261 20.0312 37.3177C20.4937 37.5093 20.889 37.8337 21.1672 38.25C21.4453 38.6662 21.5938 39.1556 21.5938 39.6562C21.5938 40.3276 21.3271 40.9714 20.8524 41.4461C20.3777 41.9208 19.7338 42.1875 19.0625 42.1875ZM19.0625 33.75C18.5619 33.75 18.0725 33.6015 17.6562 33.3234C17.24 33.0453 16.9155 32.6499 16.7239 32.1874C16.5323 31.7249 16.4822 31.2159 16.5799 30.7249C16.6776 30.2339 16.9186 29.7829 17.2726 29.4289C17.6266 29.0749 18.0777 28.8338 18.5687 28.7361C19.0597 28.6385 19.5686 28.6886 20.0312 28.8802C20.4937 29.0718 20.889 29.3962 21.1672 29.8125C21.4453 30.2287 21.5938 30.7181 21.5938 31.2188C21.5938 31.8901 21.3271 32.5339 20.8524 33.0086C20.3777 33.4833 19.7338 33.75 19.0625 33.75ZM27.5 42.1875C26.9994 42.1875 26.51 42.039 26.0937 41.7609C25.6775 41.4828 25.353 41.0874 25.1614 40.6249C24.9698 40.1624 24.9197 39.6534 25.0174 39.1624C25.1151 38.6714 25.3561 38.2204 25.7101 37.8664C26.0641 37.5124 26.5152 37.2713 27.0062 37.1736C27.4972 37.076 28.0061 37.1261 28.4687 37.3177C28.9312 37.5093 29.3265 37.8337 29.6047 38.25C29.8828 38.6662 30.0312 39.1556 30.0312 39.6562C30.0312 40.3276 29.7646 40.9714 29.2899 41.4461C28.8152 41.9208 28.1713 42.1875 27.5 42.1875ZM27.5 33.75C26.9994 33.75 26.51 33.6015 26.0937 33.3234C25.6775 33.0453 25.353 32.6499 25.1614 32.1874C24.9698 31.7249 24.9197 31.2159 25.0174 30.7249C25.1151 30.2339 25.3561 29.7829 25.7101 29.4289C26.0641 29.0749 26.5152 28.8338 27.0062 28.7361C27.4972 28.6385 28.0061 28.6886 28.4687 28.8802C28.9312 29.0718 29.3265 29.3962 29.6047 29.8125C29.8828 30.2287 30.0312 30.7181 30.0312 31.2188C30.0312 31.8901 29.7646 32.5339 29.2899 33.0086C28.8152 33.4833 28.1713 33.75 27.5 33.75ZM35.9375 42.1875C35.4369 42.1875 34.9475 42.039 34.5312 41.7609C34.115 41.4828 33.7905 41.0874 33.5989 40.6249C33.4073 40.1624 33.3572 39.6534 33.4549 39.1624C33.5526 38.6714 33.7936 38.2204 34.1476 37.8664C34.5016 37.5124 34.9527 37.2713 35.4437 37.1736C35.9347 37.076 36.4436 37.1261 36.9062 37.3177C37.3687 37.5093 37.764 37.8337 38.0422 38.25C38.3203 38.6662 38.4688 39.1556 38.4688 39.6562C38.4688 40.3276 38.2021 40.9714 37.7274 41.4461C37.2527 41.9208 36.6088 42.1875 35.9375 42.1875ZM35.9375 33.75C35.4369 33.75 34.9475 33.6015 34.5312 33.3234C34.115 33.0453 33.7905 32.6499 33.5989 32.1874C33.4073 31.7249 33.3572 31.2159 33.4549 30.7249C33.5526 30.2339 33.7936 29.7829 34.1476 29.4289C34.5016 29.0749 34.9527 28.8338 35.4437 28.7361C35.9347 28.6385 36.4436 28.6886 36.9062 28.8802C37.3687 29.0718 37.764 29.3962 38.0422 29.8125C38.3203 30.2287 38.4688 30.7181 38.4688 31.2188C38.4688 31.8901 38.2021 32.5339 37.7274 33.0086C37.2527 33.4833 36.6088 33.75 35.9375 33.75ZM39.3125 21.9375C39.3125 22.3851 39.1347 22.8143 38.8182 23.1307C38.5018 23.4472 38.0726 23.625 37.625 23.625H17.375C16.9274 23.625 16.4982 23.4472 16.1818 23.1307C15.8653 22.8143 15.6875 22.3851 15.6875 21.9375V13.5C15.6875 13.0524 15.8653 12.6232 16.1818 12.3068C16.4982 11.9903 16.9274 11.8125 17.375 11.8125H37.625C38.0726 11.8125 38.5018 11.9903 38.8182 12.3068C39.1347 12.6232 39.3125 13.0524 39.3125 13.5V21.9375Z" fill="#5353AA"/>
</svg>
