<svg width="50" height="50" viewBox="0 0 50 50" fill="none" xmlns="http://www.w3.org/2000/svg">
<path fill-rule="evenodd" clip-rule="evenodd" d="M41.1471 25.0007C41.1471 24.1377 40.4476 23.4382 39.5846 23.4382H10.418C9.55502 23.4382 8.85547 24.1377 8.85547 25.0007C8.85547 25.8636 9.55502 26.5632 10.418 26.5632H39.5846C40.4476 26.5632 41.1471 25.8636 41.1471 25.0007Z" fill="#5353AA"/>
<path fill-rule="evenodd" clip-rule="evenodd" d="M41.1471 14.584C41.1471 13.721 40.4476 13.0215 39.5846 13.0215H10.418C9.55502 13.0215 8.85547 13.721 8.85547 14.584C8.85547 15.4469 9.55502 16.1465 10.418 16.1465H39.5846C40.4476 16.1465 41.1471 15.4469 41.1471 14.584Z" fill="#5353AA"/>
<path fill-rule="evenodd" clip-rule="evenodd" d="M41.1471 35.4173C41.1471 34.5544 40.4476 33.8548 39.5846 33.8548H10.418C9.55502 33.8548 8.85547 34.5544 8.85547 35.4173C8.85547 36.2803 9.55502 36.9798 10.418 36.9798H39.5846C40.4476 36.9798 41.1471 36.2803 41.1471 35.4173Z" fill="#5353AA"/>
</svg>
