<svg width="62" height="70" viewBox="0 0 62 70" fill="none" xmlns="http://www.w3.org/2000/svg">
<path d="M9.89666 10.0167L32.1914 35.0154L10.0625 60.2446C9.70134 59.7048 9.42039 59.1008 9.23088 58.4567C9.13137 57.727 9.13137 56.9842 9.23088 56.2546V13.3212C9.16456 12.1692 9.39669 11.0171 9.89411 10.0167M41.7954 24.1129L34.5178 32.3554L12.4884 7.58415C13.2026 7.30124 13.9679 7.22249 14.7153 7.35665C15.8887 7.72415 17.0085 8.28999 18.0365 9.0279L37.9742 21.6425C39.27 22.4387 40.5327 23.2758 41.7954 24.1129ZM34.5203 37.7133L41.7623 45.845L36.5125 49.1875L20.4956 59.3667C19.1691 60.2037 17.8376 61.0029 16.5417 61.9158C15.9873 62.3109 15.3656 62.566 14.718 62.6641C14.0704 62.7622 13.412 62.701 12.7868 62.4846L34.5203 37.7133ZM53.2948 35.0154C53.3148 36.0356 53.09 37.0426 52.6448 37.927C52.1996 38.8114 51.551 39.5394 50.7694 40.0321L44.785 43.8296L36.9105 35.0154L44.8182 26.0496C46.8462 27.3417 48.841 28.6337 50.8332 29.85C51.6281 30.3572 52.2811 31.1117 52.7163 32.0259C53.1515 32.9401 53.3538 33.9767 53.2948 35.0154Z" fill="#5353AA"/>
</svg>
