<svg width="68" height="70" viewBox="0 0 68 70" fill="none" xmlns="http://www.w3.org/2000/svg">
<g clip-path="url(#clip0_2108_10314)">
<path fill-rule="evenodd" clip-rule="evenodd" d="M33.8112 5.83398C49.1757 5.83398 61.6303 18.8919 61.6303 35.0007C61.6303 51.1094 49.1757 64.1673 33.8112 64.1673C18.4468 64.1673 5.99219 51.1094 5.99219 35.0007C5.99219 18.8919 18.4468 5.83398 33.8112 5.83398ZM35.2022 37.9173H17.9544C17.2166 37.9173 16.509 38.2246 15.9873 38.7716C15.4656 39.3186 15.1725 40.0604 15.1725 40.834C15.1725 41.6075 15.4656 42.3494 15.9873 42.8964C16.509 43.4434 17.2166 43.7507 17.9544 43.7507H19.3843L18.5859 45.2411C18.4072 45.5755 18.2931 45.9434 18.2501 46.324C18.2072 46.7046 18.2361 47.0904 18.3353 47.4593C18.4345 47.8282 18.602 48.1729 18.8283 48.4739C19.0546 48.775 19.3352 49.0263 19.6541 49.2136C19.973 49.4009 20.324 49.5205 20.6871 49.5656C21.0501 49.6106 21.418 49.5803 21.7698 49.4763C22.1217 49.3723 22.4505 49.1967 22.7376 48.9594C23.0247 48.7222 23.2644 48.428 23.4431 48.0936L25.7604 43.7507H35.2022C35.94 43.7507 36.6476 43.4434 37.1693 42.8964C37.691 42.3494 37.9841 41.6075 37.9841 40.834C37.9841 40.0604 37.691 39.3186 37.1693 38.7716C36.6476 38.2246 35.94 37.9173 35.2022 37.9173ZM40.4683 29.2023C40.1246 28.5471 39.554 28.0553 38.8743 27.8285C38.1947 27.6017 37.4579 27.6573 36.8162 27.9838C36.1746 28.3103 35.677 28.8827 35.4263 29.5827C35.1756 30.2828 35.191 31.0571 35.4692 31.7457L35.6139 32.0519L44.1822 48.0936C44.5292 48.7422 45.0994 49.2273 45.7762 49.4498C46.4531 49.6723 47.1854 49.6153 47.8235 49.2904C48.4615 48.9656 48.9572 48.3975 49.2091 47.7023C49.4609 47.0071 49.45 46.2373 49.1785 45.5502L49.0338 45.2411L48.2382 43.7536H49.6681C50.3815 43.7595 51.0697 43.4778 51.5907 42.9668C52.1116 42.4558 52.4254 41.7545 52.4672 41.0078C52.509 40.2612 52.2756 39.5262 51.8152 38.9548C51.3548 38.3834 50.7027 38.0193 49.9936 37.9377L49.6681 37.9173H45.1224L40.4683 29.2023ZM33.4579 16.0773C33.1142 15.4221 32.5436 14.9303 31.8639 14.7035C31.1843 14.4767 30.4475 14.5323 29.8058 14.8588C29.1642 15.1853 28.6666 15.7576 28.4159 16.4577C28.1652 17.1578 28.1806 17.9321 28.4588 18.6207L28.6007 18.9269L30.6232 22.7098L25.5963 32.119C25.2465 32.7687 25.1475 33.5342 25.3195 34.258C25.4916 34.9819 25.9217 35.6091 26.5214 36.0107C27.121 36.4123 27.8447 36.5577 28.5435 36.417C29.2422 36.2764 29.8631 35.8603 30.2782 35.2544L30.4535 34.9686L39.0217 18.9269C39.3762 18.277 39.4788 17.5091 39.3082 16.7822C39.1376 16.0552 38.7069 15.4249 38.1053 15.0216C37.5037 14.6183 36.7773 14.4731 36.0763 14.6158C35.3754 14.7586 34.7536 15.1785 34.3398 15.7886L34.1673 16.0744L33.8112 16.7423L33.4579 16.0773Z" fill="#5353AA"/>
</g>
<defs>
<clipPath id="clip0_2108_10314">
<rect width="66.7657" height="70" fill="white" transform="translate(0.429688)"/>
</clipPath>
</defs>
</svg>
