<svg width="55" height="54" viewBox="0 0 55 54" fill="none" xmlns="http://www.w3.org/2000/svg">
<path d="M54.5 51.5455C54.5 52.1964 54.2812 52.8208 53.8917 53.2811C53.5022 53.7414 52.9739 54 52.4231 54H2.57692C2.02609 54 1.49782 53.7414 1.10832 53.2811C0.718818 52.8208 0.5 52.1964 0.5 51.5455C0.5 50.8945 0.718818 50.2701 1.10832 49.8098C1.49782 49.3495 2.02609 49.0909 2.57692 49.0909H52.4231C52.9739 49.0909 53.5022 49.3495 53.8917 49.8098C54.2812 50.2701 54.5 50.8945 54.5 51.5455ZM54.5 4.90909V39.2727C54.5 40.5747 54.0624 41.8233 53.2834 42.744C52.5044 43.6646 51.4478 44.1818 50.3462 44.1818H4.65385C3.55218 44.1818 2.49563 43.6646 1.71663 42.744C0.937636 41.8233 0.5 40.5747 0.5 39.2727V4.90909C0.5 3.60712 0.937636 2.35847 1.71663 1.43784C2.49563 0.517206 3.55218 0 4.65385 0H50.3462C51.4478 0 52.5044 0.517206 53.2834 1.43784C54.0624 2.35847 54.5 3.60712 54.5 4.90909ZM36.8462 22.0909C36.8461 21.6965 36.7656 21.308 36.6115 20.9581C36.4574 20.6083 36.2342 20.3075 35.9609 20.0812L25.5763 11.4903C25.2651 11.2327 24.9 11.0809 24.5209 11.0514C24.1418 11.022 23.7631 11.116 23.4261 11.3232C23.089 11.5304 22.8065 11.843 22.6093 12.2268C22.4121 12.6106 22.3078 13.051 22.3077 13.5V30.6818C22.3078 31.1308 22.4121 31.5712 22.6093 31.955C22.8065 32.3388 23.089 32.6514 23.4261 32.8586C23.7631 33.0659 24.1418 33.1599 24.5209 33.1304C24.9 33.1009 25.2651 32.9491 25.5763 32.6915L35.9609 24.1006C36.2342 23.8743 36.4574 23.5735 36.6115 23.2237C36.7656 22.8739 36.8461 22.4853 36.8462 22.0909Z" fill="#5353AA"/>
</svg>
